<svg xmlns="http://www.w3.org/2000/svg" enable-background="new 0 0 24 24" viewBox="0 0 24 24" id="openstreetmap"><polygon fill="#95CA6E" points="8.783 21.31 3.802 19.839 1.48 11.29 2.69 5.767 1.196 1.12 6.45 2.31 9.6 1.41 20.365 1.887 22.26 16.29 21.03 20.65 15.97 21.96 11.255 20.64"></polygon><path fill="#404A5D" d="M23.947,6.615C23.609,4.4,22.429,2.518,20.615,1.3c-3.302-2.222-7.772-1.533-10.267,1.581C9.302,4.191,8.677,5.849,8.677,7.654c0,0.593,0.067,1.171,0.185,1.674c0.181,0.8,0.582,1.767,1.007,2.429l0.218,0.343l-1.746,1.744l-0.277-0.14c-0.242-0.124-0.319-0.14-0.621-0.14c-0.65-0.002-0.464-0.159-4.069,3.449c-3.568,3.572-3.372,3.341-3.372,3.986c-0.004,0.58,0.067,0.689,1.184,1.802c0.938,0.934,1.12,1.079,1.473,1.168l0.001,0.001c0.255,0.065,0.675,0.019,0.946-0.106c0.212-0.097,0.638-0.505,3.402-3.261c3.586-3.582,3.433-3.398,3.43-4.049c0-0.301-0.015-0.376-0.14-0.617l-0.14-0.28l1.746-1.744l0.343,0.218c1.338,0.858,3.087,1.294,4.662,1.163c1.107-0.093,1.924-0.32,2.885-0.803l0.04-0.017c0.714-0.347,1.358-0.817,1.905-1.384l0.001-0.001c1.169-1.143,1.968-2.662,2.207-4.401C24.018,8.194,24.018,7.081,23.947,6.615z"></path><path fill="#FFF" d="M22.429,11.02l-0.019,0.042c-0.984,1.989-2.861,3.459-5.154,3.897l0.001,0.002c-0.588,0.107-1.749,0.129-2.321,0.042l-0.039-0.005c-1.719-0.261-3.239-1.131-4.34-2.39c-1.101-1.259-1.769-2.907-1.769-4.71c0-1.564,0.501-3.01,1.339-4.168c0.347-0.49,1.163-1.306,1.663-1.662c0.801-0.567,1.721-0.98,2.763-1.201c0.68-0.145,2.06-0.159,2.713-0.028c0.942,0.189,1.943,0.597,2.66,1.08C22.94,3.942,23.992,7.766,22.429,11.02z"></path><polygon fill="#95CA6E" points="10.343 2.889 10.349 2.882 10.355 2.873"></polygon><path d="M3.501,24c-0.157,0-0.308-0.017-0.44-0.05c-0.554-0.143-0.836-0.404-1.728-1.293c-1.027-1.022-1.338-1.331-1.331-2.227c-0.015-0.864-0.015-0.864,2.9-3.78l0.871-0.872c3.071-3.074,3.091-3.058,3.892-3.062c0.331,0.001,0.524,0.02,0.751,0.107l0.837-0.837c-0.397-0.675-0.754-1.563-0.927-2.325C8.201,9.129,8.135,8.526,8.135,7.926c0-1.816,0.599-3.526,1.731-4.943c2.564-3.199,7.231-3.919,10.63-1.636c1.873,1.259,3.098,3.209,3.446,5.491c0,0.001,0,0.002,0.001,0.002c0.076,0.512,0.076,1.622,0,2.16c-0.24,1.754-1.031,3.331-2.287,4.558c-0.567,0.587-1.239,1.075-1.983,1.438c-1.012,0.506-1.875,0.746-3.008,0.841c-1.566,0.135-3.286-0.276-4.647-1.089l-0.837,0.835c0.087,0.221,0.105,0.402,0.105,0.688c0.013,0.884,0.013,0.884-3.007,3.898l-0.429,0.428c-2.859,2.852-3.083,3.062-3.408,3.21C4.169,23.932,3.822,24,3.501,24z M7.55,14.216c-0.185,0.089-1.03,0.936-2.715,2.623l-0.872,0.872c-1.582,1.583-2.376,2.378-2.475,2.588c0,0.005,0.014,0.134,0.014,0.138C1.5,20.692,1.5,20.707,2.392,21.595c0.788,0.785,0.905,0.866,1.036,0.9c0.073,0.013,0.281-0.004,0.389-0.053c0.163-0.108,1.237-1.177,2.975-2.908l0.428-0.428c1.651-1.648,2.48-2.476,2.577-2.693c0-0.003-0.01-0.138-0.01-0.14c0-0.069,0.002-0.115-0.004-0.155c-0.007-0.015-0.022-0.043-0.043-0.081l-0.136-0.272c-0.146-0.288-0.089-0.638,0.14-0.866l1.637-1.635c0.249-0.248,0.636-0.29,0.932-0.104l0.322,0.204c1.125,0.723,2.582,1.083,3.907,0.978c0.938-0.079,1.62-0.269,2.43-0.676c0.632-0.305,1.162-0.69,1.621-1.165c1.031-1.008,1.671-2.284,1.866-3.707c0.056-0.395,0.057-1.361,0.002-1.73c-0.285-1.861-1.279-3.45-2.801-4.473c-2.753-1.851-6.541-1.269-8.622,1.329C10.12,5.067,9.635,6.453,9.635,7.926c0,0.487,0.053,0.971,0.153,1.398c0.152,0.675,0.492,1.493,0.845,2.043l0.206,0.323c0.189,0.297,0.147,0.685-0.102,0.934L9.101,14.26c-0.23,0.23-0.58,0.287-0.869,0.139l-0.261-0.132c-0.043-0.021-0.072-0.038-0.101-0.048c-0.03-0.004-0.075-0.002-0.143-0.002L7.55,14.216z"></path><path d="M10.9 21.39c-.079 0-.159-.013-.238-.039-.393-.131-.604-.557-.473-.949l.71-2.12c.131-.392.557-.602.949-.473.393.131.604.557.473.949l-.71 2.12C11.507 21.191 11.214 21.39 10.9 21.39zM17.75 18c-.068 0-.138-.009-.206-.029l-.7-.2c-.398-.113-.629-.528-.515-.927.113-.398.529-.635.927-.515l.7.2c.398.113.629.528.515.927C18.377 17.785 18.077 18 17.75 18z"></path><path d="M15.97 22.71c-.063 0-.127-.008-.189-.024l-4.868-1.268L9.23 21.91c-.401.116-.815-.112-.931-.509-.116-.397.111-.814.509-.931l1.881-.551c.131-.039.268-.041.4-.006l4.881 1.271 4.455-1.153 1.072-3.805-.144-1.295c-.046-.412.251-.782.662-.828.419-.04.783.251.828.662l.16 1.44c.011.097.003.193-.023.286l-1.229 4.36c-.072.257-.275.456-.534.523l-5.061 1.31C16.096 22.702 16.033 22.71 15.97 22.71zM2.63 15.905c-.362 0-.665-.254-.735-.595l-1.133-3.807c-.037-.125-.041-.258-.012-.385l1.17-4.996L.752 1.297C.69 1.043.765.775.949.591c.185-.187.45-.261.706-.2l4.778 1.144 2.96-.845c.406-.12.814.118.927.515.114.398-.116.813-.515.927L6.656 3.03C6.532 3.066 6.401 3.068 6.275 3.039L2.498 2.135l.921 3.809c.028.114.028.233.002.348l-1.165 4.976 1.093 3.67c.021.069.031.142.031.214C3.38 15.564 3.044 15.905 2.63 15.905z"></path><path d="M7.3 5.99c-.325 0-.625-.213-.721-.541l-.85-2.931C5.614 2.12 5.844 1.704 6.241 1.589c.405-.112.813.115.93.512l.85 2.931c.115.398-.114.814-.512.93C7.438 5.98 7.368 5.99 7.3 5.99zM6.9 8.14c-.071 0-.145-.01-.217-.032l-4.21-1.27C2.077 6.719 1.853 6.3 1.973 5.903 2.092 5.508 2.51 5.279 2.907 5.402l4.21 1.27C7.514 6.791 7.738 7.21 7.618 7.606 7.521 7.931 7.223 8.14 6.9 8.14zM5.45 13.14c-.065 0-.133-.009-.2-.027l-3.97-1.1c-.399-.11-.633-.523-.522-.923.11-.397.516-.634.923-.522l3.97 1.1c.399.11.633.523.522.923C6.081 12.922 5.779 13.14 5.45 13.14zM15.969 22.706c-.088 0-.178-.016-.265-.049-.388-.146-.583-.579-.437-.966l1.777-4.706c.09-.239.296-.416.546-.469l4.512-.957c.398-.091.804.172.889.578.086.405-.173.803-.578.889l-4.11.872-1.633 4.322C16.557 22.521 16.271 22.706 15.969 22.706z"></path><path d="M3.501,24c-0.157,0-0.308-0.017-0.44-0.05c-0.554-0.143-0.836-0.404-1.728-1.293c-1.027-1.022-1.338-1.331-1.331-2.227c-0.015-0.864-0.015-0.864,2.9-3.78l0.871-0.872c3.071-3.074,3.091-3.058,3.892-3.062c0.331,0.001,0.524,0.02,0.751,0.107l0.837-0.837c-0.397-0.675-0.754-1.563-0.927-2.325C8.201,9.129,8.135,8.526,8.135,7.926c0-1.816,0.599-3.526,1.731-4.943c2.564-3.199,7.231-3.919,10.63-1.636c1.873,1.259,3.098,3.209,3.446,5.491c0,0.001,0,0.002,0.001,0.002c0.076,0.512,0.076,1.622,0,2.16c-0.24,1.754-1.031,3.331-2.287,4.558c-0.567,0.587-1.239,1.075-1.983,1.438c-1.012,0.506-1.875,0.746-3.008,0.841c-1.566,0.135-3.286-0.276-4.647-1.089l-0.837,0.835c0.087,0.221,0.105,0.402,0.105,0.688c0.013,0.884,0.013,0.884-3.007,3.898l-0.429,0.428c-2.859,2.852-3.083,3.062-3.408,3.21C4.169,23.932,3.822,24,3.501,24z M7.55,14.216c-0.185,0.089-1.03,0.936-2.715,2.623l-0.872,0.872c-1.582,1.583-2.376,2.378-2.475,2.588c0,0.005,0.014,0.134,0.014,0.138C1.5,20.692,1.5,20.707,2.392,21.595c0.788,0.785,0.905,0.866,1.036,0.9c0.073,0.013,0.281-0.004,0.389-0.053c0.163-0.108,1.237-1.177,2.975-2.908l0.428-0.428c1.651-1.648,2.48-2.476,2.577-2.693c0-0.003-0.01-0.138-0.01-0.14c0-0.069,0.002-0.115-0.004-0.155c-0.007-0.015-0.022-0.043-0.043-0.081l-0.136-0.272c-0.146-0.288-0.089-0.638,0.14-0.866l1.637-1.635c0.249-0.248,0.636-0.29,0.932-0.104l0.322,0.204c1.125,0.723,2.582,1.083,3.907,0.978c0.938-0.079,1.62-0.269,2.43-0.676c0.632-0.305,1.162-0.69,1.621-1.165c1.031-1.008,1.671-2.284,1.866-3.707c0.056-0.395,0.057-1.361,0.002-1.73c-0.285-1.861-1.279-3.45-2.801-4.473c-2.753-1.851-6.541-1.269-8.622,1.329C10.12,5.067,9.635,6.453,9.635,7.926c0,0.487,0.053,0.971,0.153,1.398c0.152,0.675,0.492,1.493,0.845,2.043l0.206,0.323c0.189,0.297,0.147,0.685-0.102,0.934L9.101,14.26c-0.23,0.23-0.58,0.287-0.869,0.139l-0.261-0.132c-0.043-0.021-0.072-0.038-0.101-0.048c-0.03-0.004-0.075-0.002-0.143-0.002L7.55,14.216z"></path></svg>